# xmcd
#
# Track frame offsets: 
#        150
#        15704
#        34067
#        54045
#        71778
#        88070
#        105088
#        120485
#        136890
#        153559
#        171192
#        184960
#        202942
#        222696
#        239074
#        253877
#
# Disc length: 3613 seconds
#
# Revision: 0
# Processed by: cddbd v1.5.2PL0 Copyright (c) Steve Scherf et al.
# Submitted via: ExactAudioCopy v1.0b3
#
DISCID=e30e1b10
DTITLE=宮史郎とぴんからトリオ - 浪花の演歌師 宮史郎とぴんからトリオ Disc 2 COCP-37984-5
DYEAR=1900
DGENRE=Blues
TTITLE0=女の意地 
TTITLE1=哀愁海峡 
TTITLE2=恋あざみ 
TTITLE3=夢追い酒 
TTITLE4=涙の酒
TTITLE5=未練ごころ
TTITLE6=新宿の女 
TTITLE7=おんなの宿
TTITLE8=九段の母
TTITLE9=新妻鏡 
TTITLE10=雨に咲く花 
TTITLE11=うしろ姿
TTITLE12=奥飛騨慕情 
TTITLE13=くちなしの花 
TTITLE14=なみだ恋
TTITLE15=宗右衛門町ブルース
EXTD=
EXTT0=
EXTT1=
EXTT2=
EXTT3=
EXTT4=
EXTT5=
EXTT6=
EXTT7=
EXTT8=
EXTT9=
EXTT10=
EXTT11=
EXTT12=
EXTT13=
EXTT14=
EXTT15=
PLAYORDER=
